<svg id="visual" viewBox="0 0 900 600" width="900" height="600" xmlns="http://www.w3.org/2000/svg" xmlns:xlink="http://www.w3.org/1999/xlink" version="1.1"><rect x="0" y="0" width="900" height="600" fill="#ffffff"></rect><path d="M0 494L39 495L78 509L117 513L157 483L196 518L235 471L274 483L313 494L352 499L391 515L430 466L470 466L509 507L548 527L587 476L626 500L665 484L704 507L743 524L783 507L822 510L861 519L900 485L900 601L861 601L822 601L783 601L743 601L704 601L665 601L626 601L587 601L548 601L509 601L470 601L430 601L391 601L352 601L313 601L274 601L235 601L196 601L157 601L117 601L78 601L39 601L0 601Z" fill="#4682b4"></path><path d="M0 524L39 531L78 545L117 545L157 552L196 529L235 560L274 531L313 551L352 536L391 520L430 555L470 542L509 529L548 551L587 562L626 523L665 524L704 522L743 543L783 518L822 542L861 517L900 536L900 601L861 601L822 601L783 601L743 601L704 601L665 601L626 601L587 601L548 601L509 601L470 601L430 601L391 601L352 601L313 601L274 601L235 601L196 601L157 601L117 601L78 601L39 601L0 601Z" fill="#4682b4"></path></svg>